<mxfile host="65bd71144e">
    <diagram id="C9pMarFbB6TXwQX7p874" name="Page-1">
        <mxGraphModel dx="1215" dy="675" grid="1" gridSize="10" guides="1" tooltips="1" connect="1" arrows="1" fold="1" page="1" pageScale="1" pageWidth="850" pageHeight="1100" math="0" shadow="0">
            <root>
                <mxCell id="0"/>
                <mxCell id="1" parent="0"/>
                <mxCell id="2" value="Header" style="rounded=0;whiteSpace=wrap;html=1;" parent="1" vertex="1">
                    <mxGeometry x="250" y="20" width="1200" height="50" as="geometry"/>
                </mxCell>
                <mxCell id="18" value="" style="group" parent="1" vertex="1" connectable="0">
                    <mxGeometry x="250" y="100" width="1200" height="350" as="geometry"/>
                </mxCell>
                <mxCell id="3" value="CoffeeControl" style="rounded=0;whiteSpace=wrap;html=1;labelPosition=center;verticalLabelPosition=middle;align=center;verticalAlign=top;movable=1;resizable=1;rotatable=1;deletable=1;editable=1;connectable=1;" parent="18" vertex="1">
                    <mxGeometry width="1200" height="350" as="geometry"/>
                </mxCell>
                <mxCell id="20" value="" style="group" parent="18" vertex="1" connectable="0">
                    <mxGeometry x="330" y="42.42" width="250" height="286.36" as="geometry"/>
                </mxCell>
                <mxCell id="5" value="NewCoffeeForm" style="rounded=0;whiteSpace=wrap;html=1;verticalAlign=top;movable=1;resizable=1;rotatable=1;deletable=1;editable=1;connectable=1;" parent="20" vertex="1">
                    <mxGeometry width="249.99999999999997" height="286.36" as="geometry"/>
                </mxCell>
                <mxCell id="17" value="Submit" style="rounded=0;whiteSpace=wrap;html=1;" parent="20" vertex="1">
                    <mxGeometry x="20" y="222.72" width="210" height="53.03" as="geometry"/>
                </mxCell>
                <mxCell id="29" value="ReusableForm" style="rounded=0;whiteSpace=wrap;html=1;" vertex="1" parent="20">
                    <mxGeometry x="20" y="37.58" width="210" height="150" as="geometry"/>
                </mxCell>
                <mxCell id="21" value="" style="group" parent="18" vertex="1" connectable="0">
                    <mxGeometry x="620" y="42.420000000000016" width="250" height="286.36" as="geometry"/>
                </mxCell>
                <mxCell id="22" value="CoffeeDetail" style="rounded=0;whiteSpace=wrap;html=1;verticalAlign=top;movable=1;resizable=1;rotatable=1;deletable=1;editable=1;connectable=1;" parent="21" vertex="1">
                    <mxGeometry width="249.99999999999997" height="286.36" as="geometry"/>
                </mxCell>
                <mxCell id="23" value="Update/Delete" style="rounded=0;whiteSpace=wrap;html=1;" parent="21" vertex="1">
                    <mxGeometry x="35.7142857142857" y="222.7244444444444" width="178.57142857142856" height="53.029629629629625" as="geometry"/>
                </mxCell>
                <mxCell id="25" value="Buy" style="rounded=0;whiteSpace=wrap;html=1;" parent="21" vertex="1">
                    <mxGeometry x="35.714285714285715" y="116.66444444444438" width="178.57142857142856" height="53.029629629629625" as="geometry"/>
                </mxCell>
                <mxCell id="19" value="" style="group" parent="18" vertex="1" connectable="0">
                    <mxGeometry x="40" y="42.42" width="250" height="286.36" as="geometry"/>
                </mxCell>
                <mxCell id="13" value="" style="group" parent="19" vertex="1" connectable="0">
                    <mxGeometry width="250" height="286.36" as="geometry"/>
                </mxCell>
                <mxCell id="4" value="CoffeeList" style="rounded=0;whiteSpace=wrap;html=1;verticalAlign=top;" parent="13" vertex="1">
                    <mxGeometry width="250" height="222.72444444444446" as="geometry"/>
                </mxCell>
                <mxCell id="6" value="Coffee" style="rounded=0;whiteSpace=wrap;html=1;" parent="13" vertex="1">
                    <mxGeometry x="8.621428571428572" y="32.53898074074074" width="232.75714285714287" height="52.30842666666667" as="geometry"/>
                </mxCell>
                <mxCell id="14" value="Coffee" style="rounded=0;whiteSpace=wrap;html=1;" parent="13" vertex="1">
                    <mxGeometry x="8.621428571428567" y="95.45333333333333" width="232.75714285714287" height="52.30842666666667" as="geometry"/>
                </mxCell>
                <mxCell id="15" value="Coffee" style="rounded=0;whiteSpace=wrap;html=1;" parent="13" vertex="1">
                    <mxGeometry x="8.621428571428567" y="159.0888888888889" width="232.75714285714287" height="52.30842666666667" as="geometry"/>
                </mxCell>
                <mxCell id="16" value="Add Coffee" style="rounded=0;whiteSpace=wrap;html=1;" parent="19" vertex="1">
                    <mxGeometry y="233.33037037037036" width="250" height="53.02962962962963" as="geometry"/>
                </mxCell>
                <mxCell id="35" value="" style="group" vertex="1" connectable="0" parent="18">
                    <mxGeometry x="910" y="42.420000000000016" width="250" height="286.36" as="geometry"/>
                </mxCell>
                <mxCell id="36" value="EditCoffeeForm" style="rounded=0;whiteSpace=wrap;html=1;verticalAlign=top;movable=1;resizable=1;rotatable=1;deletable=1;editable=1;connectable=1;" vertex="1" parent="35">
                    <mxGeometry width="249.99999999999997" height="286.36" as="geometry"/>
                </mxCell>
                <mxCell id="37" value="Submit" style="rounded=0;whiteSpace=wrap;html=1;" vertex="1" parent="35">
                    <mxGeometry x="20" y="222.72" width="210" height="53.03" as="geometry"/>
                </mxCell>
                <mxCell id="38" value="ReusableForm" style="rounded=0;whiteSpace=wrap;html=1;" vertex="1" parent="35">
                    <mxGeometry x="20" y="37.58" width="210" height="150" as="geometry"/>
                </mxCell>
            </root>
        </mxGraphModel>
    </diagram>
</mxfile>